<?xml version="1.0" standalone="no"?>
<!DOCTYPE svg PUBLIC "-//W3C//DTD SVG 20010904//EN"
 "http://www.w3.org/TR/2001/REC-SVG-20010904/DTD/svg10.dtd">
<svg version="1.0" xmlns="http://www.w3.org/2000/svg"
 width="300.000000pt" height="300.000000pt" viewBox="0 0 300.000000 300.000000"
 preserveAspectRatio="xMidYMid meet">
<metadata>
Created by potrace 1.14, written by Peter Selinger 2001-2017
</metadata>
<g transform="translate(0.000000,300.000000) scale(0.100000,-0.100000)"
fill="#000000" stroke="none">
<path d="M15 1955 c5 -85 16 -209 21 -216 2 -3 6 -21 9 -40 17 -100 79 -252
140 -343 153 -231 384 -339 710 -331 151 3 203 9 278 30 141 41 275 168 317
299 l13 39 14 -42 c23 -68 70 -137 129 -189 108 -97 221 -131 449 -137 288 -8
484 62 640 227 69 73 89 100 132 183 52 101 80 188 108 340 8 44 18 241 12
235 -3 -3 -19 -23 -37 -45 -17 -22 -58 -68 -92 -102 -189 -194 -358 -196 -650
-7 -145 93 -199 115 -303 119 -123 5 -218 -26 -341 -110 l-61 -42 -45 31
c-133 93 -231 127 -357 122 -95 -4 -148 -24 -282 -108 -355 -223 -505 -206
-756 87 l-51 60 3 -60z"/>
</g>
</svg>
